# xmcd
#
# Track frame offsets:
#	150
#	18226
#	36631
#	50297
#	69300
#	90909
#	111119
#	128601
#	149857
#	169167
#	185163
#	204412
#	228155
#
# Disc length: 3306 seconds
#
# Revision: 8
# Processed by: cddbd v1.5.2PL0 Copyright (c) Steve Scherf et al.
# Submitted via: dBpowerAMP V4.0
#
DISCID=b20ce80d
DTITLE=2007 - CD simple - Le coeur d'un homme
DYEAR=2007
DGENRE=Rock and Roll
TTITLE0=01. Monument Valley
TTITLE1=02. Etre un homme
TTITLE2=03. Always
TTITLE3=04. Chavirer les foules
TTITLE4=05. Vous madame
TTITLE5=06. Je reviendrai dans tes bras
TTITLE6=07. Que restera-t-il?
TTITLE7=08. T'aimer si mal
TTITLE8=09. Ma vie
TTITLE9=10. Laquelle de toi
TTITLE10=11. Sarbacane
TTITLE11=12. Ce que j'ai fait de ma vie
TTITLE12=13. I am the blues
EXTD=2007 - Le coeur d'un homme - CD.CRYSTAL\n256 469 810 8  \nWARNER MUSIC 2007\ndanielrogeremorine@hotmail.fr
EXTT0=
EXTT1=
EXTT2=
EXTT3=
EXTT4=
EXTT5=
EXTT6=
EXTT7=
EXTT8=
EXTT9=
EXTT10=
EXTT11=
EXTT12=
PLAYORDER=
